<svg id="Component_197_22" data-name="Component 197 – 22" xmlns="http://www.w3.org/2000/svg" width="22.092" height="11.656" viewBox="0 0 22.092 11.656">
  <path id="Path_1642" data-name="Path 1642" d="M-555.436,260.964a.659.659,0,0,1-.437-.85q.346-1.172.708-2.339c.04-.129.028-.185-.11-.236a13.613,13.613,0,0,1-2.939-1.522c-.11-.075-.164-.064-.251.029-.575.607-1.158,1.208-1.737,1.812a.969.969,0,0,1-.258.2.625.625,0,0,1-.884-.188.7.7,0,0,1,.061-.922q.847-.873,1.7-1.737c.1-.1.094-.143-.013-.229a16.781,16.781,0,0,1-2.041-1.915.811.811,0,0,1-.255-.685.643.643,0,0,1,.447-.561.722.722,0,0,1,.8.215,18.221,18.221,0,0,0,2.3,2.095,13.657,13.657,0,0,0,4.059,2.239,7.679,7.679,0,0,0,5.4-.218,15.317,15.317,0,0,0,5.636-4.075.781.781,0,0,1,.676-.309.773.773,0,0,1,.62.511v.389a.831.831,0,0,1-.26.463,19.593,19.593,0,0,1-1.926,1.783c-.161.125-.16.142-.023.284.514.532,1.016,1.075,1.549,1.587a.882.882,0,0,1,.266.466.732.732,0,0,1-.342.783.744.744,0,0,1-.95-.074c-.616-.595-1.189-1.232-1.789-1.843a.173.173,0,0,0-.264-.03,14.506,14.506,0,0,1-2.864,1.482c-.149.058-.138.137-.1.256.234.681.433,1.373.673,2.052a.834.834,0,0,1-.052.765.637.637,0,0,1-.493.337h-.28a.6.6,0,0,1-.566-.478c-.167-.491-.3-.991-.455-1.487-.078-.254-.166-.505-.231-.762a.228.228,0,0,0-.3-.2,11.013,11.013,0,0,1-1.8.126,8.069,8.069,0,0,1-1.256-.116.217.217,0,0,0-.294.182c-.184.641-.384,1.278-.578,1.917a3.613,3.613,0,0,1-.156.46.535.535,0,0,1-.542.363A2.4,2.4,0,0,1-555.436,260.964Z" transform="translate(562.976 -250.767)" fill="#c5c4c4"/>
</svg>
