<svg id="Component_197_22" data-name="Component 197 – 22" xmlns="http://www.w3.org/2000/svg" width="22.092" height="11.656" viewBox="0 0 22.092 11.656">
  <g id="Group_1122" data-name="Group 1122" transform="translate(246.105 -294.834)">
    <path id="Path_1645" data-name="Path 1645" d="M-246.1,300.647c7.159-7.68,14.857-7.807,22.092-.039C-230.744,308.32-238.888,308.568-246.1,300.647Zm11.042-3.439a3.481,3.481,0,0,0-3.421,3.459,3.467,3.467,0,0,0,3.517,3.443,3.483,3.483,0,0,0,3.384-3.411A3.489,3.489,0,0,0-235.063,297.208Z" transform="translate(0 0)" fill="#bbb"/>
    <path id="Path_1646" data-name="Path 1646" d="M-189.312,322.352a1.811,1.811,0,0,1-1.744-1.811,1.812,1.812,0,0,1,1.807-1.745,1.811,1.811,0,0,1,1.744,1.809A1.813,1.813,0,0,1-189.312,322.352Z" transform="translate(-45.753 -19.916)" fill="#bbb"/>
  </g>
</svg>
