<?xml version="1.0" encoding="utf-8"?>
<!-- Generator: Adobe Illustrator 25.0.0, SVG Export Plug-In . SVG Version: 6.00 Build 0)  -->
<svg version="1.1" id="Layer_1" xmlns="http://www.w3.org/2000/svg" xmlns:xlink="http://www.w3.org/1999/xlink" x="0px" y="0px"
	 viewBox="0 0 250 100" style="enable-background:new 0 0 250 100;" xml:space="preserve">
<style type="text/css">
	.st0{fill:#FFFFFF;}
	.st1{fill:none;}
</style>
<g>
	<g>
		<path class="st0" d="M172.38,23.37c-0.27,0-0.53,0.04-0.79,0.11c-0.07,0.02-0.14,0.04-0.21,0.06V15.4c0-0.25,0.06-0.45,0.18-0.6
			c0.15-0.18,0.34-0.35,0.55-0.48c0.25-0.15,0.51-0.28,0.8-0.4c0.32-0.13,0.63-0.28,0.9-0.44c0.3-0.17,0.54-0.37,0.75-0.6
			c0.24-0.27,0.36-0.62,0.36-1.03c0-0.39-0.17-0.74-0.48-1.06c-0.26-0.26-0.57-0.51-0.92-0.73c-0.34-0.21-0.69-0.4-1.03-0.57
			c-0.31-0.16-0.56-0.29-0.72-0.39c-0.21-0.12-0.5-0.34-0.9-0.65c-0.4-0.32-0.85-0.68-1.33-1.1c-0.48-0.42-0.98-0.86-1.49-1.34
			c-0.51-0.47-0.97-0.93-1.37-1.36c-0.4-0.44-0.74-0.84-1-1.2c-0.29-0.4-0.32-0.59-0.34-0.59c0.02-0.02,0.04-0.04,0.07-0.06
			c0.05-0.03,0.09-0.05,0.2-0.08c0.1,0,0.34,0.04,0.79,0.33c0.39,0.25,0.83,0.58,1.3,0.95c0.48,0.39,0.98,0.8,1.5,1.24
			c0.52,0.45,1.05,0.86,1.56,1.23c0.52,0.38,1.03,0.69,1.49,0.92c0.53,0.25,0.97,0.36,1.42,0.27c0.21-0.04,0.41-0.11,0.57-0.18
			c0.14-0.06,0.3-0.13,0.5-0.2l0.27-0.1l-0.21-2.73l-0.46,0.14c-0.16,0.05-0.27,0.09-0.41,0.16l-0.24,0.12
			c-0.04,0.02-0.11,0.04-0.19,0.06c-0.19,0.03-0.45-0.03-0.76-0.2c-0.37-0.21-0.78-0.49-1.22-0.84c-0.45-0.36-0.92-0.75-1.41-1.19
			c-0.49-0.45-1.01-0.87-1.51-1.25c-0.52-0.39-1.03-0.73-1.54-0.99c-1.04-0.56-2.04-0.52-2.79-0.2c-0.37,0.16-0.68,0.37-0.93,0.65
			c-0.26,0.27-0.46,0.61-0.58,0.98c-0.12,0.36-0.19,0.76-0.19,1.17c0,0.46,0.14,0.93,0.41,1.42c0.25,0.46,0.56,0.91,0.92,1.34
			c0.36,0.43,0.73,0.83,1.12,1.2c0.38,0.36,0.7,0.67,0.97,0.92c0.18,0.16,0.41,0.38,0.71,0.65c0.29,0.27,0.63,0.56,1,0.86
			c0.37,0.31,0.76,0.62,1.16,0.94c0.4,0.32,0.8,0.61,1.18,0.88c0.35,0.24,0.68,0.46,1,0.63c-0.1,0.04-0.2,0.08-0.3,0.13
			c-0.41,0.19-0.79,0.43-1.11,0.72c-0.32,0.3-0.58,0.68-0.76,1.13c-0.19,0.44-0.28,0.98-0.28,1.6V25.9c0,0.64,0.1,1.21,0.31,1.69
			c0.21,0.48,0.48,0.88,0.83,1.2c0.35,0.32,0.74,0.55,1.19,0.7c0.43,0.15,0.89,0.22,1.35,0.22c0.45,0,0.87-0.08,1.26-0.23
			c0.4-0.15,0.74-0.37,1.03-0.64c0.29-0.27,0.52-0.61,0.69-1c0.16-0.38,0.25-0.82,0.25-1.29c0-0.98-0.27-1.76-0.79-2.32
			C174.14,23.66,173.36,23.37,172.38,23.37 M173.25,26.53c0,0.27-0.09,0.49-0.28,0.67c-0.28,0.28-0.69,0.35-1.02,0.21
			c-0.11-0.05-0.21-0.12-0.3-0.21c-0.09-0.09-0.16-0.2-0.2-0.32c-0.05-0.11-0.08-0.22-0.08-0.36c0-0.12,0.03-0.24,0.07-0.34
			c0.05-0.11,0.12-0.21,0.2-0.3c0.09-0.09,0.19-0.16,0.3-0.21c0.1-0.05,0.21-0.07,0.34-0.07c0.13,0,0.25,0.02,0.36,0.07
			c0.12,0.05,0.22,0.12,0.31,0.21c0.1,0.09,0.16,0.18,0.21,0.29C173.23,26.3,173.25,26.41,173.25,26.53"/>
		<path class="st0" d="M194.17,13.04c-0.8-0.53-1.72-0.92-2.74-1.16c-1-0.24-2.04-0.36-3.08-0.36c-0.5,0-1.07,0.03-1.68,0.09
			c-0.62,0.06-1.26,0.17-1.89,0.31c-0.64,0.15-1.27,0.34-1.87,0.58c-0.62,0.25-1.17,0.57-1.65,0.95c-0.49,0.39-0.89,0.86-1.18,1.4
			c-0.31,0.55-0.46,1.19-0.46,1.91c0,0.67,0.13,1.27,0.39,1.78c0.26,0.51,0.6,0.94,1.03,1.3c0.42,0.35,0.91,0.64,1.45,0.87
			c0.53,0.23,1.08,0.4,1.66,0.53c0.56,0.12,1.14,0.21,1.7,0.26c1.28,0.12,2.35,0.11,3.55-0.11c0.69-0.12,1.36-0.32,2.01-0.57
			c0.65-0.25,1.27-0.58,1.85-0.95c0.3-0.2,0.58-0.41,0.84-0.65v3.8c0,0.44-0.08,0.84-0.23,1.18c-0.16,0.36-0.37,0.69-0.63,0.97
			c-0.26,0.29-0.58,0.54-0.94,0.76c-0.37,0.23-0.76,0.41-1.16,0.56c-0.41,0.15-0.83,0.25-1.24,0.33c-0.43,0.07-0.84,0.11-1.23,0.11
			c-0.19,0-0.48-0.01-0.86-0.03c-0.37-0.02-0.77-0.05-1.17-0.11c-0.4-0.05-0.78-0.12-1.14-0.21c-0.08-0.02-0.15-0.04-0.22-0.06
			c0.02-0.02,0.03-0.03,0.04-0.05c0.14-0.18,0.26-0.39,0.36-0.61c0.09-0.22,0.17-0.44,0.21-0.67c0.04-0.23,0.07-0.44,0.07-0.64
			c0-0.45-0.09-0.86-0.26-1.24c-0.17-0.37-0.41-0.7-0.69-0.98c-0.29-0.28-0.63-0.5-1.02-0.66c-0.79-0.32-1.72-0.3-2.46-0.02
			c-0.39,0.15-0.73,0.36-1.01,0.64c-0.28,0.28-0.51,0.61-0.68,1c-0.16,0.39-0.24,0.82-0.24,1.29c0,0.7,0.16,1.32,0.48,1.86
			c0.31,0.52,0.72,0.98,1.22,1.36c0.5,0.37,1.06,0.69,1.69,0.93c0.62,0.24,1.25,0.44,1.89,0.59c0.64,0.15,1.28,0.25,1.89,0.32
			c0.61,0.06,1.17,0.09,1.66,0.09c0.64,0,1.29-0.05,1.96-0.14c0.66-0.1,1.31-0.26,1.93-0.47c0.62-0.21,1.21-0.49,1.75-0.83
			c0.56-0.34,1.04-0.76,1.45-1.24c0.41-0.48,0.75-1.04,0.99-1.65c0.24-0.62,0.36-1.33,0.36-2.11v-4.96c0-1.24-0.26-2.3-0.76-3.17
			C195.66,14.29,194.99,13.58,194.17,13.04 M188.01,14.29c0.37,0,0.83,0.03,1.39,0.11c0.55,0.07,1.11,0.19,1.68,0.36
			c0.55,0.17,1.06,0.38,1.53,0.64c0.34,0.19,0.6,0.42,0.78,0.67c-0.26,0.39-0.58,0.74-0.94,1.04c-0.44,0.36-0.93,0.67-1.44,0.92
			c-0.51,0.25-1.06,0.44-1.63,0.57c-0.56,0.13-1.12,0.19-1.65,0.19c-0.25,0-0.57,0-0.95-0.01c-0.37-0.01-0.76-0.03-1.17-0.07
			c-0.4-0.04-0.81-0.1-1.2-0.2c-0.39-0.09-0.74-0.21-1.04-0.37c-0.29-0.15-0.53-0.34-0.7-0.56c-0.15-0.2-0.23-0.44-0.23-0.75
			c0-0.3,0.08-0.56,0.25-0.78c0.19-0.26,0.44-0.48,0.75-0.67c0.33-0.2,0.7-0.37,1.11-0.51c0.42-0.14,0.85-0.26,1.28-0.35
			c0.44-0.09,0.84-0.15,1.23-0.19C187.43,14.31,187.75,14.29,188.01,14.29 M183.74,24.59c0,0.27-0.09,0.48-0.27,0.66
			c-0.37,0.37-0.97,0.37-1.34,0c-0.19-0.18-0.27-0.4-0.27-0.66c0-0.27,0.08-0.49,0.27-0.67c0.19-0.18,0.4-0.27,0.66-0.27
			c0.27,0,0.49,0.09,0.67,0.27C183.64,24.1,183.74,24.32,183.74,24.59"/>
		<path class="st0" d="M215.69,16.51c-0.23-0.67-0.55-1.33-0.96-1.94c-0.41-0.62-0.96-1.19-1.62-1.7c-0.35-0.26-0.78-0.48-1.28-0.66
			c-0.48-0.17-0.99-0.31-1.5-0.41c-0.52-0.1-1.05-0.17-1.55-0.21c-0.51-0.04-0.95-0.06-1.34-0.06c-0.21,0-0.46,0-0.74,0.01
			c-0.29,0.01-0.59,0.03-0.91,0.06c-0.31,0.02-0.61,0.05-0.9,0.08c-0.3,0.03-0.55,0.07-0.76,0.11c-0.5,0.1-1.01,0.22-1.51,0.39
			c-0.53,0.17-1.02,0.4-1.45,0.68c-0.45,0.29-0.82,0.66-1.11,1.08c-0.3,0.45-0.46,0.99-0.46,1.6c0,0.65,0.18,1.23,0.55,1.71
			c0.34,0.46,0.79,0.83,1.33,1.1l0.28,0.14l1.61-2.01l-0.24-0.25c-0.05-0.05-0.13-0.11-0.24-0.2c-0.08-0.05-0.15-0.12-0.24-0.2
			c-0.07-0.07-0.14-0.14-0.19-0.22c-0.02-0.04-0.04-0.08-0.04-0.14c0-0.03,0-0.09,0.11-0.19c0.14-0.12,0.33-0.23,0.55-0.32
			c0.24-0.1,0.5-0.18,0.78-0.25c0.29-0.07,0.55-0.13,0.78-0.19c0.24-0.05,0.46-0.1,0.67-0.13c0.21-0.03,0.43-0.05,0.64-0.06
			c0.22-0.02,0.45-0.02,0.68-0.03c0.47-0.01,0.99-0.03,1.75,0.05c0.37,0.03,0.75,0.08,1.12,0.15c0.38,0.07,0.74,0.16,1.08,0.26
			c0.33,0.1,0.6,0.22,0.81,0.35c0.28,0.17,0.55,0.4,0.81,0.67c0.26,0.26,0.49,0.62,0.68,1.07c0.2,0.45,0.36,1.03,0.46,1.7
			c0.1,0.68,0.14,1.52,0.1,2.51c0,0.36-0.01,0.76-0.02,1.21c-0.02,0.45-0.04,0.9-0.08,1.36c-0.04,0.45-0.1,0.89-0.16,1.32
			c-0.07,0.41-0.16,0.78-0.27,1.1c-0.1,0.3-0.23,0.54-0.38,0.72c-0.13,0.16-0.24,0.18-0.33,0.18c-0.02,0-0.08,0-0.17-0.1
			c-0.11-0.13-0.23-0.3-0.34-0.53c-0.13-0.25-0.26-0.55-0.41-0.9c-0.14-0.36-0.32-0.75-0.51-1.16c-0.25-0.54-0.5-1.06-0.77-1.56
			c-0.28-0.52-0.62-0.98-1-1.38c-0.39-0.41-0.86-0.74-1.39-0.99c-1.06-0.48-2.64-0.46-4.08-0.12c-0.72,0.17-1.38,0.45-1.95,0.83
			c-0.59,0.39-1.07,0.89-1.43,1.51c-0.37,0.62-0.56,1.38-0.56,2.26c0,0.9,0.13,1.67,0.39,2.29c0.26,0.63,0.62,1.15,1.06,1.54
			c0.45,0.39,0.96,0.67,1.54,0.84c0.97,0.28,2.15,0.37,3.05,0c0.39-0.16,0.72-0.39,1.01-0.68c0.29-0.29,0.52-0.64,0.66-1.02
			c0.15-0.39,0.23-0.81,0.23-1.27c0-0.45-0.09-0.88-0.27-1.27c-0.17-0.38-0.41-0.72-0.71-1c-0.29-0.28-0.65-0.49-1.03-0.65
			c-0.6-0.24-1.25-0.32-1.96-0.13c-0.23,0.07-0.48,0.16-0.71,0.28c-0.05,0.03-0.1,0.05-0.15,0.08c0.14-0.21,0.33-0.39,0.54-0.55
			c0.27-0.19,0.6-0.33,0.94-0.42c0.84-0.22,1.79-0.18,2.3,0.08c0.3,0.15,0.55,0.35,0.75,0.6c0.22,0.27,0.41,0.59,0.57,0.95
			c0.18,0.4,0.4,0.81,0.61,1.23c0.21,0.42,0.41,0.85,0.58,1.29c0.19,0.47,0.4,0.9,0.64,1.29c0.27,0.41,0.6,0.75,1,1.01
			c0.42,0.28,0.97,0.42,1.63,0.42c0.52,0,0.99-0.11,1.4-0.31c0.4-0.21,0.75-0.49,1.04-0.86c0.28-0.35,0.53-0.78,0.72-1.27
			c0.19-0.48,0.34-1,0.46-1.57c0.15-0.75,0.25-1.56,0.29-2.42c0.04-0.84,0.06-1.73,0.06-2.65c0-0.67-0.04-1.36-0.12-2.05
			C216.07,17.87,215.92,17.17,215.69,16.51 M203.43,26.53c0-0.27,0.09-0.49,0.27-0.67c0.18-0.18,0.39-0.27,0.66-0.27
			c0.28,0,0.5,0.09,0.68,0.27c0.18,0.18,0.27,0.4,0.27,0.66c0,0.27-0.09,0.49-0.27,0.67c-0.36,0.36-0.98,0.37-1.34,0
			C203.52,27.02,203.43,26.8,203.43,26.53"/>
		<path class="st0" d="M232.11,25.71v-8.38c0-0.9-0.2-1.73-0.6-2.45c-0.39-0.71-0.92-1.32-1.56-1.81c-0.63-0.49-1.36-0.87-2.17-1.14
			c-1.55-0.5-3.18-0.57-4.7,0.05c-0.71,0.29-1.36,0.68-1.91,1.16c-0.56,0.48-1.01,1.04-1.35,1.67c-0.35,0.64-0.53,1.31-0.53,1.98
			c0,0.59,0.07,1.14,0.21,1.62c0.14,0.5,0.38,0.94,0.67,1.3c0.32,0.37,0.71,0.65,1.19,0.84c0.81,0.32,1.98,0.42,2.89,0.04
			c0.38-0.16,0.73-0.39,1.01-0.68c0.28-0.29,0.51-0.63,0.67-1.03c0.16-0.39,0.24-0.82,0.24-1.28c0-0.43-0.07-0.84-0.21-1.22
			c-0.14-0.39-0.34-0.72-0.62-1.01c-0.27-0.28-0.61-0.51-0.99-0.67c-0.19-0.08-0.39-0.13-0.6-0.17c0.19-0.06,0.4-0.11,0.62-0.15
			c0.74-0.14,1.44-0.12,2.26,0.12c0.48,0.14,0.94,0.34,1.34,0.59c0.39,0.24,0.72,0.54,0.98,0.88c0.24,0.32,0.35,0.65,0.35,1.02v8.43
			c0,0.24-0.03,0.55-0.09,0.92c-0.08,0.38-0.15,0.74-0.25,1.09c-0.09,0.36-0.18,0.68-0.26,0.96c-0.08,0.25-0.12,0.4-0.16,0.46
			l-0.27,0.56h3.24l0.09-0.26c0.02-0.06,0.05-0.2,0.1-0.39c0.03-0.17,0.08-0.38,0.12-0.61c0.03-0.23,0.08-0.48,0.12-0.73
			c0.03-0.26,0.06-0.5,0.1-0.73c0.03-0.23,0.06-0.43,0.07-0.6C232.12,25.88,232.12,25.74,232.11,25.71 M223.01,16.72
			c0.26,0,0.48,0.08,0.66,0.26c0.18,0.17,0.27,0.39,0.27,0.66c0,0.29-0.09,0.51-0.27,0.69c-0.36,0.36-0.96,0.35-1.34-0.01
			c-0.19-0.18-0.27-0.4-0.27-0.68c0-0.27,0.09-0.48,0.27-0.65C222.52,16.81,222.74,16.72,223.01,16.72"/>
	</g>
	<rect x="87.97" y="38.4" class="st0" width="11.91" height="60.38"/>
	<path class="st0" d="M200.61,38.8c-16.91,0-30.61,13.7-30.61,30.6c0,16.91,13.7,30.61,30.61,30.61c16.9,0,30.6-13.7,30.6-30.61
		C231.21,52.49,217.51,38.8,200.61,38.8z M200.61,88.07c-10.31,0-18.67-8.36-18.67-18.67s8.36-18.67,18.67-18.67
		c10.31,0,18.67,8.36,18.67,18.67S210.92,88.07,200.61,88.07z"/>
	<rect x="153.1" y="38.4" class="st0" width="11.91" height="60.38"/>
	<path class="st0" d="M134.41,38.8c-16.91,0-30.61,13.7-30.61,30.6c0,16.91,13.7,30.61,30.61,30.61c16.9,0,30.6-13.7,30.6-30.61
		C165.01,52.49,151.31,38.8,134.41,38.8z M134.41,88.07c-10.31,0-18.67-8.36-18.67-18.67s8.36-18.67,18.67-18.67
		c10.31,0,18.67,8.36,18.67,18.67S144.72,88.07,134.41,88.07z"/>
	<rect x="219.36" y="38.4" class="st0" width="11.91" height="60.38"/>
	<path class="st0" d="M52.82,38.8c-16.91,0-30.61,13.7-30.61,30.6c0,16.91,13.7,30.61,30.61,30.61c16.9,0,30.6-13.7,30.6-30.61
		C83.42,52.49,69.72,38.8,52.82,38.8z M52.82,88.07c-10.31,0-18.67-8.36-18.67-18.67s8.36-18.67,18.67-18.67
		c10.31,0,18.66,8.36,18.66,18.67S63.13,88.07,52.82,88.07z"/>
</g>
<rect x="22.21" y="0" class="st1" width="209.9" height="100"/>
</svg>
