<svg id="Layer_1" data-name="Layer 1" xmlns="http://www.w3.org/2000/svg" viewBox="0 0 21.33 21.83"><defs><style>.cls-1{fill:#f57e20;}.cls-2{fill:#fff;}</style></defs><circle id="Ellipse_261" data-name="Ellipse 261" class="cls-1" cx="10.66" cy="11" r="10.7"/><path class="cls-2" d="M11.86,18.08a5.42,5.42,0,0,0,1.3-.92A3.21,3.21,0,0,0,14,13.78a7.45,7.45,0,0,0-1.68-2.71,4.29,4.29,0,0,1-.25,1.11,4.26,4.26,0,0,0-2.5-2.52A3.14,3.14,0,0,1,9.1,13a1.87,1.87,0,0,0-1-1c-.1.14-.06.31-.07.47a2.82,2.82,0,0,1-.39,1.33A2.92,2.92,0,0,0,8.75,18a1.69,1.69,0,0,1,.22.15,3.25,3.25,0,0,1-1.6-.22A6.19,6.19,0,0,1,5.3,16.1a4.07,4.07,0,0,1-.22-4.45A7.72,7.72,0,0,0,6.2,8,2.06,2.06,0,0,1,7.53,9.85a6.64,6.64,0,0,0,1.85-6,7.31,7.31,0,0,1,4.14,4.7A4,4,0,0,0,13.3,6.2s.08,0,.1,0A13.84,13.84,0,0,1,16.47,11a5.23,5.23,0,0,1-1.94,6.21c-.26.2-.55.36-.82.55A2.37,2.37,0,0,1,11.86,18.08Z"/></svg>