<svg xmlns="http://www.w3.org/2000/svg" width="23.1" height="23.098" viewBox="0 0 23.1 23.098">
  <g id="Group_1587" data-name="Group 1587" transform="translate(0 0)">
    <path id="Path_2334" data-name="Path 2334" d="M-213,300.259c.058-.4.1-.8.176-1.2a9.438,9.438,0,0,1,2.278-4.627,9.386,9.386,0,0,1,4.839-2.972,9.416,9.416,0,0,1,8.217,1.623,9.355,9.355,0,0,1,3.822,6.376,9.485,9.485,0,0,1-1.882,7.279c-.077.1-.154.2-.248.326.062.065.12.13.181.191q2.678,2.679,5.356,5.357a.893.893,0,0,1,.106,1.335,2.357,2.357,0,0,1-.471.291h-.361a5.282,5.282,0,0,1-.662-.483q-2.625-2.6-5.233-5.222c-.062-.062-.127-.121-.2-.187-.117.089-.218.166-.32.242a9.555,9.555,0,0,1-8.334,1.676,9.355,9.355,0,0,1-4.755-2.9,9.456,9.456,0,0,1-2.342-4.715c-.072-.389-.115-.783-.172-1.174Zm17.642.6a7.937,7.937,0,0,0-7.924-7.91,7.937,7.937,0,0,0-7.918,7.917,7.938,7.938,0,0,0,7.936,7.921A7.935,7.935,0,0,0-195.358,300.858Z" transform="translate(213 -291.143)" fill="#fff"/>
  </g>
</svg>
